Coordinates
version=1
nRows=11
nColumns=33
inDegrees=yes

Units are S.I. units (second, meters, Newtons, ...)
Angles are in degrees.

endheader
time	ground_thorax_rot_x	ground_thorax_rot_y	ground_thorax_rot_z	ground_thorax_tx	ground_thorax_ty	ground_thorax_tz	clav_prot_r	clav_elev_r	scapula_abduction_r	scapula_elevation_r	scapula_upward_rot_r	scapula_winging_r	shoulder_elv_r	plane_of_elev_r	axial_rot_r	elbow_flexion_r	pro_sup_r	wrist_flex_r	wrist_dev_r	clav_prot_l	clav_elev_l	scapula_abduction_l	scapula_elevation_l	scapula_upward_rot_l	scapula_winging_l	shoulder_elv_l	plane_of_elev_l	axial_rot_l	elbow_flexion_l	pro_sup_l	wrist_flex_l	wrist_dev_l	
6.0100	-20.543794	-35.663326	55.765147	-42.617423	782.995102	12.425875	7.612650	-45.000000	36.170554	-45.000000	-44.999977	-2615.432218	-2638.044366	151.378331	-107.543986	728.984051	26.236277	16.774800	10.843361	13.347326	36.915610	-28.631333	-45.000000	-45.000000	1513.219522	-2620.316846	136.459166	-180.000000	6.306717	47.040922	9.285144	-21.941071	
6.0200	-20.628456	-35.650523	55.668838	-43.022253	782.780417	12.461161	7.585854	-45.000000	36.134154	-45.000000	-44.999959	-2615.445073	-2638.037707	151.355245	-107.692162	729.037881	26.598326	16.829503	10.832540	13.406080	36.934435	-28.657900	-45.000000	-45.000000	1513.246012	-2620.316340	136.454501	-180.000000	6.281163	46.605535	9.356505	-21.911107	
6.0300	-20.713445	-35.635805	55.563094	-43.439583	782.553858	12.494757	7.566562	-45.000000	36.124726	-45.000000	-44.999926	-2615.462677	-2638.046133	151.326939	-107.824633	729.078978	26.939918	16.917419	10.807145	13.503241	36.963724	-28.679454	-45.000000	-45.000000	1513.293775	-2620.326853	136.429865	-180.000000	6.260662	46.190188	9.395250	-21.882001	
6.0400	-20.787940	-35.627314	55.464938	-43.885015	782.298801	12.524670	7.547061	-45.000000	36.117869	-45.000000	-44.999868	-2615.473856	-2638.045645	151.304470	-107.936132	729.118334	27.237107	16.974847	10.796255	13.547051	36.977895	-28.689418	-45.000000	-45.000000	1513.330655	-2620.325630	136.418137	-180.000000	6.227113	45.846421	9.448408	-21.854942	
6.0500	-20.860126	-35.613024	55.368514	-44.359837	782.017432	12.550200	7.534221	-45.000000	36.113977	-45.000000	-44.999762	-2615.481526	-2638.034736	151.290629	-108.021563	729.154284	27.493604	17.006046	10.798462	13.561894	36.988534	-28.706421	-45.000000	-45.000000	1513.345256	-2620.325655	136.435409	-180.000000	6.190475	45.568411	9.506143	-21.835234	
6.0600	-20.927454	-35.598542	55.272736	-44.867673	781.710566	12.570203	7.522174	-45.000000	36.119142	-45.000000	-44.999576	-2615.492051	-2638.024244	151.276527	-108.087023	729.177553	27.704908	17.038885	10.797357	13.567686	36.994786	-28.712593	-45.000000	-45.000000	1513.372503	-2620.320457	136.436499	-180.000000	6.143959	45.359163	9.552313	-21.815710	
6.0700	-20.999598	-35.570419	55.174658	-45.409014	781.384541	12.583770	7.518580	-45.000000	36.117292	-45.000000	-44.999234	-2615.504670	-2638.000454	151.266722	-108.128634	729.200351	27.881372	17.046774	10.807252	13.556024	37.001005	-28.731134	-45.000000	-45.000000	1513.379433	-2620.312815	136.463716	-180.000000	6.107068	45.212858	9.598627	-21.806289	
6.0800	-21.071878	-35.539398	55.073909	-45.983422	781.048309	12.590154	7.512089	-45.000000	36.118376	-45.000000	-44.998648	-2615.525492	-2637.980760	151.249918	-108.161719	729.209012	28.027412	17.073816	10.800227	13.561207	37.005372	-28.738781	-45.000000	-45.000000	1513.421303	-2620.299099	136.450209	-180.000000	6.067584	45.119317	9.622727	-21.794638	
6.0900	-21.155161	-35.493198	54.961293	-46.591866	780.710511	12.588623	7.512287	-45.000000	36.115110	-45.000000	-44.997524	-2615.548738	-2637.948457	151.233598	-108.176602	729.223245	28.157132	17.080226	10.803653	13.556054	37.011516	-28.761919	-45.000000	-45.000000	1513.445132	-2620.278572	136.460772	-180.000000	6.049285	45.073704	9.645973	-21.794844	
6.1000	-21.236172	-35.449391	54.845252	-47.236237	780.379436	12.578429	7.504953	-45.000000	36.116597	-45.000000	-44.995717	-2615.575869	-2637.919606	151.211196	-108.195595	729.228283	28.271623	17.109863	10.786461	13.568708	37.012774	-28.773836	-45.000000	-45.000000	1513.515113	-2620.253222	136.425981	-180.000000	6.033742	45.069536	9.649156	-21.792666	
6.1100	-21.327311	-35.390405	54.713958	-47.919467	780.062567	12.558451	7.507440	-45.000000	36.113217	-45.000000	-44.991901	-2615.606169	-2637.879105	151.182907	-108.206174	729.243453	28.383401	17.121065	10.779525	13.573614	37.015969	-28.802397	-45.000000	-45.000000	1513.567751	-2620.221814	136.418402	-180.000000	6.048492	45.101441	9.651842	-21.804557	
